<?xml version="1.0" encoding="UTF-8"?><svg xmlns="http://www.w3.org/2000/svg" viewBox="0 0 226.77 62.23"><defs><style>.d{fill:#161229;}</style></defs><g id="a"/><g id="b"><g id="c"><g><path class="d" d="M23.19,9.15V48.64h-7.95V9.15H0V1.66H38.5v7.49h-15.31Z"/><path class="d" d="M65.47,16.37l7.62,22.33,6.43-22.33h7.82l-10.34,32.27h-7.69l-8.02-23.19-7.82,23.19h-7.89l-10.47-32.27h8.22l6.56,22.33,7.62-22.33h7.95Z"/><path class="d" d="M91.32,5.04c0-1.41,.49-2.61,1.46-3.58,.97-.97,2.14-1.46,3.51-1.46s2.61,.49,3.58,1.46c.97,.97,1.46,2.16,1.46,3.58s-.49,2.6-1.46,3.55c-.97,.95-2.17,1.42-3.58,1.42s-2.54-.47-3.51-1.42c-.97-.95-1.46-2.13-1.46-3.55Zm1.19,43.61V16.37h7.62V48.64h-7.62Z"/><path class="d" d="M113.25,38.04c.13,1.46,.74,2.74,1.82,3.84,1.08,1.11,2.66,1.66,4.74,1.66,1.59,0,2.79-.36,3.61-1.09,.82-.73,1.23-1.6,1.23-2.62,0-.88-.31-1.63-.93-2.25-.62-.62-1.57-1.06-2.85-1.33l-4.77-1.06c-2.87-.62-5.04-1.78-6.49-3.48-1.46-1.7-2.19-3.68-2.19-5.93,0-1.41,.31-2.75,.93-4.01,.62-1.26,1.46-2.36,2.52-3.31,1.06-.95,2.31-1.7,3.74-2.25,1.44-.55,2.99-.83,4.67-.83,2.25,0,4.14,.32,5.67,.96,1.52,.64,2.77,1.42,3.74,2.35,.97,.93,1.69,1.91,2.15,2.95,.46,1.04,.76,1.95,.89,2.75l-6.49,1.86c-.09-.44-.24-.95-.46-1.52-.22-.57-.56-1.1-1.03-1.59-.46-.49-1.06-.89-1.79-1.23-.73-.33-1.62-.5-2.68-.5-1.37,0-2.49,.36-3.35,1.09-.86,.73-1.29,1.6-1.29,2.62,0,.88,.29,1.61,.86,2.19,.57,.57,1.37,.97,2.39,1.19l4.9,.99c3.05,.66,5.36,1.87,6.93,3.61,1.57,1.75,2.35,3.81,2.35,6.2,0,1.24-.25,2.46-.76,3.68-.51,1.22-1.26,2.32-2.25,3.31s-2.26,1.8-3.81,2.42c-1.55,.62-3.34,.93-5.37,.93-2.34,0-4.33-.33-5.96-.99-1.64-.66-2.98-1.49-4.04-2.49s-1.86-2.05-2.39-3.18c-.53-1.13-.84-2.15-.93-3.08l6.69-1.86Z"/><path class="d" d="M148.77,16.37h6.69v6.83h-6.69v14.98c0,1.41,.33,2.44,.99,3.08,.66,.64,1.7,.96,3.11,.96,.53,0,1.06-.03,1.59-.1s.88-.12,1.06-.17v6.36c-.22,.09-.71,.23-1.46,.43-.75,.2-1.83,.3-3.25,.3-3,0-5.37-.84-7.09-2.52-1.72-1.68-2.58-4.04-2.58-7.09V23.19h-5.96v-6.83h1.66c1.72,0,2.98-.49,3.78-1.46,.8-.97,1.19-2.16,1.19-3.58V6.49h6.96v9.87Z"/><path class="d" d="M160.57,39.89c0-1.46,.25-2.74,.76-3.84,.51-1.1,1.19-2.06,2.05-2.88,.86-.82,1.89-1.47,3.08-1.95,1.19-.49,2.47-.84,3.84-1.06l8.28-1.26c.93-.13,1.56-.41,1.89-.83,.33-.42,.5-.92,.5-1.49,0-1.37-.49-2.53-1.46-3.48-.97-.95-2.52-1.42-4.64-1.42s-3.6,.56-4.71,1.69c-1.1,1.13-1.75,2.51-1.92,4.14l-7.02-1.59c.13-1.37,.55-2.69,1.26-3.98,.71-1.28,1.63-2.41,2.78-3.38,1.15-.97,2.53-1.74,4.14-2.32,1.61-.57,3.41-.86,5.4-.86,2.47,0,4.58,.33,6.33,.99,1.74,.66,3.16,1.55,4.24,2.65,1.08,1.11,1.88,2.39,2.39,3.84,.51,1.46,.76,2.98,.76,4.57v16.04c0,1.46,.06,2.64,.17,3.55,.11,.91,.19,1.45,.23,1.62h-7.16c-.04-.09-.11-.47-.2-1.16-.09-.68-.13-1.67-.13-2.95-.75,1.24-1.94,2.4-3.58,3.48-1.63,1.08-3.76,1.62-6.36,1.62-1.68,0-3.19-.26-4.54-.79-1.35-.53-2.5-1.25-3.45-2.15-.95-.9-1.68-1.94-2.19-3.11-.51-1.17-.76-2.4-.76-3.68Zm12.39,3.71c1.06,0,2.08-.14,3.05-.43,.97-.29,1.82-.75,2.55-1.39,.73-.64,1.31-1.49,1.76-2.55,.44-1.06,.66-2.39,.66-3.98v-1.46l-8.42,1.26c-1.19,.22-2.21,.67-3.05,1.36-.84,.69-1.26,1.69-1.26,3.02,0,1.1,.4,2.08,1.19,2.92,.79,.84,1.97,1.26,3.51,1.26Z"/><path class="d" d="M201.92,48.58c.27,1.99,1.12,3.65,2.55,4.97,1.44,1.33,3.28,1.99,5.53,1.99,6.1,0,9.14-3.23,9.14-9.68v-3.38c-.71,1.28-1.84,2.39-3.41,3.31-1.57,.93-3.55,1.39-5.93,1.39-2.17,0-4.15-.4-5.96-1.19-1.81-.8-3.38-1.89-4.71-3.28-1.33-1.39-2.36-3.05-3.11-4.97-.75-1.92-1.13-4.01-1.13-6.26s.36-4.2,1.09-6.1c.73-1.9,1.74-3.56,3.05-4.97,1.3-1.41,2.87-2.54,4.71-3.38,1.83-.84,3.85-1.26,6.06-1.26,2.52,0,4.56,.45,6.13,1.36,1.57,.91,2.71,2.02,3.41,3.35v-4.11h7.42v29.22c0,2.16-.3,4.24-.89,6.23-.6,1.99-1.55,3.75-2.85,5.3-1.3,1.55-3,2.78-5.1,3.71-2.1,.93-4.67,1.39-7.72,1.39-2.12,0-4.08-.31-5.86-.93-1.79-.62-3.36-1.46-4.7-2.52-1.35-1.06-2.43-2.31-3.25-3.74-.82-1.44-1.34-2.97-1.56-4.61l7.09-1.86Zm9.15-7.95c2.47,0,4.47-.83,6-2.49,1.52-1.66,2.29-3.88,2.29-6.66,0-1.37-.21-2.62-.63-3.74-.42-1.13-.99-2.09-1.72-2.88-.73-.79-1.6-1.4-2.62-1.82-1.02-.42-2.12-.63-3.31-.63-2.47,0-4.5,.82-6.06,2.45-1.57,1.64-2.35,3.84-2.35,6.63s.77,5.06,2.32,6.69c1.55,1.64,3.58,2.45,6.1,2.45Z"/></g></g></g></svg>